<svg width="24" height="23" viewBox="0 0 24 23" fill="none" xmlns="http://www.w3.org/2000/svg">
<path d="M4.5 4.66004V3.5625C4.5 2.0092 5.7592 0.75 7.3125 0.75H16.6875C18.2408 0.75 19.5 2.0092 19.5 3.5625V4.66004M4.5 4.66004C4.79323 4.55639 5.10878 4.5 5.4375 4.5H18.5625C18.8912 4.5 19.2068 4.55639 19.5 4.66004M4.5 4.66004C3.40763 5.04613 2.625 6.08792 2.625 7.3125V8.41004M19.5 4.66004C20.5924 5.04613 21.375 6.08792 21.375 7.3125V8.41004M21.375 8.41004C21.0818 8.30639 20.7662 8.25 20.4375 8.25H3.5625C3.23378 8.25 2.91823 8.30639 2.625 8.41004M21.375 8.41004C22.4674 8.79613 23.25 9.83792 23.25 11.0625V18.5625C23.25 20.1158 21.9908 21.375 20.4375 21.375H3.5625C2.0092 21.375 0.75 20.1158 0.75 18.5625V11.0625C0.75 9.83792 1.53263 8.79613 2.625 8.41004" stroke="#FDFDFC" stroke-width="1.5" stroke-linecap="round" stroke-linejoin="round"/>
</svg>
