<svg width="26" height="24" viewBox="0 0 26 24" fill="none" xmlns="http://www.w3.org/2000/svg">
<path d="M16.6875 20.9094C17.7287 21.2125 18.8297 21.375 19.9687 21.375C21.8171 21.375 23.5656 20.947 25.1205 20.1848C25.1234 20.1131 25.1249 20.0411 25.1249 19.9688C25.1249 17.121 22.8164 14.8125 19.9687 14.8125C18.1962 14.8125 16.6325 15.7069 15.7045 17.069M16.6875 20.9094V20.9062C16.6875 19.5151 16.331 18.2073 15.7045 17.069M16.6875 20.9094C16.6875 20.954 16.6871 20.9985 16.6863 21.0429C14.3592 22.4441 11.6331 23.25 8.71875 23.25C5.80441 23.25 3.0783 22.4441 0.751151 21.0429C0.750386 20.9974 0.75 20.9519 0.75 20.9062C0.75 16.5052 4.31773 12.9375 8.71875 12.9375C11.7286 12.9375 14.3488 14.6062 15.7045 17.069M12.9375 4.96875C12.9375 7.2987 11.0487 9.1875 8.71875 9.1875C6.3888 9.1875 4.5 7.2987 4.5 4.96875C4.5 2.6388 6.3888 0.75 8.71875 0.75C11.0487 0.75 12.9375 2.6388 12.9375 4.96875ZM23.25 7.78125C23.25 9.59343 21.7809 11.0625 19.9688 11.0625C18.1566 11.0625 16.6875 9.59343 16.6875 7.78125C16.6875 5.96907 18.1566 4.5 19.9688 4.5C21.7809 4.5 23.25 5.96907 23.25 7.78125Z" stroke="#FDFDFC" stroke-width="1.5" stroke-linecap="round" stroke-linejoin="round"/>
</svg>
